REM DIRINDEX 1\2\3,1\2\4,1\2\5,1\2\6
REM DIRNAME cjc157,folder01,folder02,folder03,folder04,folder05
TITLE ""
FILE "114 114.mp3" MP3
  TRACK 01 AUDIO
    TITLE "0:"
    INDEX 01 00:00:00
  TRACK 02 AUDIO
    TITLE "3:cjc157_4228"
    INDEX 01 00:00:11
  TRACK 03 AUDIO
    TITLE "0:"
    INDEX 01 00:01:34
  TRACK 04 AUDIO
    TITLE "4:cjc157_4229"
    INDEX 01 00:02:06
  TRACK 05 AUDIO
    TITLE "0:"
    INDEX 01 00:03:06
  TRACK 06 AUDIO
    TITLE "5:cjc157_4230"
    INDEX 01 00:03:57
  TRACK 07 AUDIO
    TITLE "0:"
    INDEX 01 00:05:26
  TRACK 08 AUDIO
    TITLE "5:cjc157_4231"
    INDEX 01 00:06:02
  TRACK 09 AUDIO
    TITLE "0:"
    INDEX 01 00:08:03
  TRACK 10 AUDIO
    TITLE "3:cjc157_4232"
    INDEX 01 00:08:44
  TRACK 11 AUDIO
    TITLE "0:"
    INDEX 01 00:09:57
  TRACK 12 AUDIO
    TITLE "4:cjc157_4233"
    INDEX 01 00:10:27
  TRACK 13 AUDIO
    TITLE "0:"
    INDEX 01 00:11:31
  TRACK 14 AUDIO
    TITLE "5:cjc157_4234"
    INDEX 01 00:12:07
  TRACK 15 AUDIO
    TITLE "0:"
    INDEX 01 00:13:49
  TRACK 16 AUDIO
    TITLE "5:cjc157_4235"
    INDEX 01 00:14:25
  TRACK 17 AUDIO
    TITLE "0:"
    INDEX 01 00:16:26
  TRACK 18 AUDIO
    TITLE "5:cjc157_4236"
    INDEX 01 00:16:71
  TRACK 19 AUDIO
    TITLE "0:"
    INDEX 01 00:18:60
  TRACK 20 AUDIO
    TITLE "3:cjc157_4237"
    INDEX 01 00:19:34
  TRACK 21 AUDIO
    TITLE "0:"
    INDEX 01 00:20:57
  TRACK 22 AUDIO
    TITLE "4:cjc157_4238"
    INDEX 01 00:21:27
  TRACK 23 AUDIO
    TITLE "0:"
    INDEX 01 00:22:29
  TRACK 24 AUDIO
    TITLE "5:cjc157_4239"
    INDEX 01 00:22:72
  TRACK 25 AUDIO
    TITLE "0:"
    INDEX 01 00:24:59
  TRACK 26 AUDIO
    TITLE "5:cjc157_4240"
    INDEX 01 00:25:39
  TRACK 27 AUDIO
    TITLE "0:"
    INDEX 01 00:29:38
  TRACK 28 AUDIO
    TITLE "3:cjc157_4241"
    INDEX 01 00:30:12
  TRACK 29 AUDIO
    TITLE "0:"
    INDEX 01 00:31:51
  TRACK 30 AUDIO
    TITLE "4:cjc157_4242"
    INDEX 01 00:32:21
  TRACK 31 AUDIO
    TITLE "0:"
    INDEX 01 00:33:42
  TRACK 32 AUDIO
    TITLE "5:cjc157_4243"
    INDEX 01 00:34:20
  TRACK 33 AUDIO
    TITLE "0:"
    INDEX 01 00:36:07
  TRACK 34 AUDIO
    TITLE "5:cjc157_4244"
    INDEX 01 00:36:58
  TRACK 35 AUDIO
    TITLE "0:"
    INDEX 01 00:38:47
  TRACK 36 AUDIO
    TITLE "3:cjc157_4245"
    INDEX 01 00:39:17
  TRACK 37 AUDIO
    TITLE "0:"
    INDEX 01 00:40:48
  TRACK 38 AUDIO
    TITLE "4:cjc157_4246"
    INDEX 01 00:41:20
  TRACK 39 AUDIO
    TITLE "0:"
    INDEX 01 00:42:45
  TRACK 40 AUDIO
    TITLE "5:cjc157_4247"
    INDEX 01 00:43:13
  TRACK 41 AUDIO
    TITLE "0:"
    INDEX 01 00:45:37
  TRACK 42 AUDIO
    TITLE "5:cjc157_4248"
    INDEX 01 00:46:07
  TRACK 43 AUDIO
    TITLE "0:"
    INDEX 01 00:48:63
  TRACK 44 AUDIO
    TITLE "3:cjc157_4249"
    INDEX 01 00:49:33
  TRACK 45 AUDIO
    TITLE "0:"
    INDEX 01 00:50:56
  TRACK 46 AUDIO
    TITLE "4:cjc157_4250"
    INDEX 01 00:51:30
  TRACK 47 AUDIO
    TITLE "0:"
    INDEX 01 00:52:43
  TRACK 48 AUDIO
    TITLE "5:cjc157_4251"
    INDEX 01 00:53:19
  TRACK 49 AUDIO
    TITLE "0:"
    INDEX 01 00:55:08
  TRACK 50 AUDIO
    TITLE "3:cjc157_4252"
    INDEX 01 00:55:55
  TRACK 51 AUDIO
    TITLE "0:"
    INDEX 01 00:57:15
  TRACK 52 AUDIO
    TITLE "4:cjc157_4253"
    INDEX 01 00:57:62
  TRACK 53 AUDIO
    TITLE "0:"
    INDEX 01 00:59:10
  TRACK 54 AUDIO
    TITLE "5:cjc157_4254"
    INDEX 01 00:59:71
  TRACK 55 AUDIO
    TITLE "0:"
    INDEX 01 01:02:03
  TRACK 56 AUDIO
    TITLE "5:cjc157_4255"
    INDEX 01 01:02:50
  TRACK 57 AUDIO
    TITLE "0:"
    INDEX 01 01:05:46
  TRACK 58 AUDIO
    TITLE "3:cjc157_4256"
    INDEX 01 01:06:14
  TRACK 59 AUDIO
    TITLE "0:"
    INDEX 01 01:07:39
  TRACK 60 AUDIO
    TITLE "4:cjc157_4257"
    INDEX 01 01:08:07
  TRACK 61 AUDIO
    TITLE "0:"
    INDEX 01 01:09:18
  TRACK 62 AUDIO
    TITLE "5:cjc157_4258"
    INDEX 01 01:09:69
  TRACK 63 AUDIO
    TITLE "0:"
    INDEX 01 01:11:70
  TRACK 64 AUDIO
    TITLE "5:cjc157_4259"
    INDEX 01 01:12:42
  TRACK 65 AUDIO
    TITLE "0:"
    INDEX 01 01:14:63
  TRACK 66 AUDIO
    TITLE "3:cjc157_4260"
    INDEX 01 01:15:33
  TRACK 67 AUDIO
    TITLE "0:"
    INDEX 01 01:16:48
  TRACK 68 AUDIO
    TITLE "4:cjc157_4261"
    INDEX 01 01:17:22
  TRACK 69 AUDIO
    TITLE "0:"
    INDEX 01 01:18:37
  TRACK 70 AUDIO
    TITLE "5:cjc157_4262"
    INDEX 01 01:19:13
  TRACK 71 AUDIO
    TITLE "0:"
    INDEX 01 01:21:23
  TRACK 72 AUDIO
    TITLE "5:cjc157_4263"
    INDEX 01 01:22:03
  TRACK 73 AUDIO
    TITLE "0:"
    INDEX 01 01:24:14
  TRACK 74 AUDIO
    TITLE "3:cjc157_4264"
    INDEX 01 01:24:59
  TRACK 75 AUDIO
    TITLE "0:"
    INDEX 01 01:26:03
  TRACK 76 AUDIO
    TITLE "4:cjc157_4265"
    INDEX 01 01:26:46
  TRACK 77 AUDIO
    TITLE "0:"
    INDEX 01 01:27:71
  TRACK 78 AUDIO
    TITLE "5:cjc157_4266"
    INDEX 01 01:28:53
  TRACK 79 AUDIO
    TITLE "0:"
    INDEX 01 01:30:44
  TRACK 80 AUDIO
    TITLE "5:cjc157_4267"
    INDEX 01 01:31:16
  TRACK 81 AUDIO
    TITLE "0:"
    INDEX 01 01:33:34
